<?xml version="1.0" standalone="no"?>
<!DOCTYPE svg PUBLIC "-//W3C//DTD SVG 20010904//EN"
 "http://www.w3.org/TR/2001/REC-SVG-20010904/DTD/svg10.dtd">
<svg version="1.0" xmlns="http://www.w3.org/2000/svg"
 width="150.000000pt" height="150.000000pt" viewBox="0 0 150.000000 150.000000"
 preserveAspectRatio="xMidYMid meet">
<metadata>
Created by potrace 1.10, written by Peter Selinger 2001-2011
</metadata>
<g transform="translate(0.000000,150.000000) scale(0.050000,-0.050000)"
fill="#000" stroke="none">
<path d="M0 1500 l0 -1500 1500 0 1500 0 0 1500 0 1500 -1500 0 -1500 0 0
-1500z m2960 0 l0 -1460 -1460 0 -1460 0 0 1460 0 1460 1460 0 1460 0 0 -1460z"/>
<path d="M380 2465 c11 -19 164 -219 339 -444 l318 -409 -36 -51 c-20 -28
-151 -240 -291 -471 -140 -230 -276 -451 -302 -489 -67 -98 -67 -97 117 -90
l165 7 280 459 c154 252 296 485 315 516 34 55 35 40 33 -463 l-2 -520 62 -6
62 -7 0 1002 0 1001 -250 0 -250 0 0 -73 0 -72 190 13 190 14 0 -371 c0 -372
-7 -409 -58 -327 -15 24 -162 218 -326 430 l-299 386 -139 0 c-127 0 -138 -3
-118 -35z"/>
<path d="M1560 1500 l0 -1000 60 0 59 0 6 513 5 513 299 -494 c164 -272 305
-498 314 -504 21 -13 337 -26 337 -14 0 5 -25 46 -56 92 -115 170 -614 1003
-609 1017 2 8 137 187 300 398 162 210 312 404 332 431 l36 48 -140 0 -141 0
-314 -405 c-173 -223 -326 -418 -341 -434 -23 -25 -27 29 -27 344 l0 374 185
-4 185 -5 6 65 7 65 -252 0 -251 0 0 -1000z"/>
</g>
</svg>
