<?xml version="1.0" encoding="UTF-8" standalone="no"?>
<svg
   xmlns:dc="http://purl.org/dc/elements/1.1/"
   xmlns:cc="http://creativecommons.org/ns#"
   xmlns:rdf="http://www.w3.org/1999/02/22-rdf-syntax-ns#"
   xmlns:svg="http://www.w3.org/2000/svg"
   xmlns="http://www.w3.org/2000/svg"
   xmlns:sodipodi="http://sodipodi.sourceforge.net/DTD/sodipodi-0.dtd"
   xmlns:inkscape="http://www.inkscape.org/namespaces/inkscape"
   version="1.1"
   id="svg2"
   xml:space="preserve"
   width="133.33333"
   height="22.986668"
   viewBox="0 0 133.33333 22.986668"
   sodipodi:docname="lush-seeklogo.com.eps"><metadata
     id="metadata8"><rdf:RDF><cc:Work
         rdf:about=""><dc:format>image/svg+xml</dc:format><dc:type
           rdf:resource="http://purl.org/dc/dcmitype/StillImage" /></cc:Work></rdf:RDF></metadata><defs
     id="defs6" /><sodipodi:namedview
     pagecolor="#000"
     bordercolor="#666666"
     borderopacity="1"
     objecttolerance="10"
     gridtolerance="10"
     guidetolerance="10"
     inkscape:pageopacity="0"
     inkscape:pageshadow="2"
     inkscape:window-width="640"
     inkscape:window-height="480"
     id="namedview4" /><g
     id="g10"
     inkscape:groupmode="layer"
     inkscape:label="ink_ext_XXXXXX"
     transform="matrix(1.3333333,0,0,-1.3333333,0,22.986667)"><g
       id="g12"
       transform="scale(0.1)"><path
         d="M 0,169.574 H 51.3398 V 43.9063 H 131.465 V 2.84375 L 0,2.84375 V 169.574"
         style="fill:#000;fill-opacity:1;fill-rule:nonzero;stroke:none"
         id="path14" /><path
         d="m 256.934,169.574 h 51.218 V 70.2422 c 0,-9.8516 -1.519,-19.1367 -4.593,-27.9063 C 300.508,33.5938 295.703,25.9297 289.164,19.3672 282.633,12.832 275.77,8.22266 268.59,5.58594 258.617,1.86719 246.637,0 232.664,0 c -8.086,0 -16.906,0.578125 -26.457,1.71875 -9.562,1.125 -17.551,3.39063 -23.973,6.75 -6.429,3.36715 -12.293,8.17185 -17.625,14.38285 -5.328,6.2109 -8.972,12.6093 -10.937,19.1992 -3.168,10.6133 -4.762,20.0117 -4.762,28.1914 v 99.3318 h 51.227 V 67.8711 c 0,-9.082 2.515,-16.1797 7.539,-21.2969 5.027,-5.1094 11.996,-7.6758 20.918,-7.6758 8.84,0 15.769,2.5274 20.797,7.5547 5.027,5.0313 7.543,12.1797 7.543,21.418 V 169.574"
         style="fill:#000;fill-opacity:1;fill-rule:nonzero;stroke:none"
         id="path16" /><path
         d="m 510.012,169.574 h 51.328 v -58.34 h 56.109 v 58.34 h 51.567 V 2.84375 H 617.449 V 70.293 H 561.34 V 2.84375 H 510.012 V 169.574"
         style="fill:#000;fill-opacity:1;fill-rule:nonzero;stroke:none"
         id="path18" /><path
         d="m 333.191,61.0742 h 48.852 c 1.059,-7.9687 3.211,-14.0351 6.465,-18.1914 5.293,-6.75 12.847,-10.1289 22.668,-10.1289 7.332,0 12.972,1.7305 16.945,5.1758 3.957,3.457 5.942,7.4531 5.942,12.0117 0,4.3047 -1.891,8.1758 -5.672,11.5938 -3.774,3.4179 -12.536,6.6406 -26.289,9.6679 -22.524,5.086 -38.567,11.836 -48.172,20.2461 -9.672,8.418 -14.504,19.1558 -14.504,32.1958 0,8.562 2.465,16.66 7.422,24.277 4.953,7.625 12.382,13.617 22.328,17.973 9.945,4.359 23.558,6.539 40.859,6.539 21.235,0 37.422,-3.961 48.563,-11.887 11.144,-7.926 18.3,-23.367 20.425,-40.66 h -48.925 c -1.285,7.5 -3.989,12.965 -8.102,16.379 -4.109,3.418 -9.805,5.121 -17.055,5.121 -5.972,0 -10.464,-1.266 -13.496,-3.813 -3.011,-2.535 -4.527,-5.629 -4.527,-9.273 0,-2.653 1.25,-5.039 3.746,-7.164 2.418,-2.196 8.164,-4.239 17.227,-6.137 22.445,-4.852 38.519,-9.766 48.226,-14.727 9.707,-4.9605 16.778,-11.1207 21.188,-18.48 4.429,-7.3477 6.636,-15.5703 6.636,-24.6836 0,-10.6953 -2.957,-20.5469 -8.843,-29.5586 C 469.203,18.5273 460.969,11.6797 450.391,7.01172 439.813,2.36328 426.477,0.0195313 410.387,0.0195313 c -28.258,0 -47.832,5.4609387 -58.711,16.3867687 -10.875,10.8984 -17.035,27.8398 -18.485,44.6679"
         style="fill:#000;fill-opacity:1;fill-rule:nonzero;stroke:none"
         id="path20" /><path
         d="m 723.047,56.3281 v 34.8438 h 7.004 V 77.4531 h 13.738 v 13.7188 h 7.024 V 56.3281 h -7.024 V 71.5742 H 730.051 V 56.3281 h -7.004"
         style="fill:#000;fill-opacity:1;fill-rule:nonzero;stroke:none"
         id="path22" /><path
         d="m 776.445,70.1172 -4.773,12.9297 -4.699,-12.9297 z m 12.91,-13.7891 h -7.625 l -3.039,7.918 h -13.867 l -2.859,-7.918 h -7.445 l 13.515,34.8438 h 7.414 l 13.906,-34.8438"
         style="fill:#000;fill-opacity:1;fill-rule:nonzero;stroke:none"
         id="path24" /><path
         d="m 793.137,56.3281 v 34.8438 h 6.812 L 814.16,67.8906 v 23.2813 h 6.524 V 56.3281 h -7.039 L 799.656,79.0547 V 56.3281 h -6.519"
         style="fill:#000;fill-opacity:1;fill-rule:nonzero;stroke:none"
         id="path26" /><path
         d="M 835.066,85.2734 V 62.1875 h 5.247 c 1.953,0 3.371,0.1289 4.238,0.3516 1.133,0.2851 2.07,0.7617 2.832,1.4375 0.742,0.6914 1.355,1.8125 1.828,3.3789 0.477,1.5429 0.711,3.6797 0.711,6.375 0,2.6875 -0.234,4.7461 -0.711,6.2031 -0.473,1.4336 -1.137,2.5625 -1.977,3.3672 -0.847,0.8047 -1.929,1.3515 -3.242,1.6406 -0.984,0.2188 -2.906,0.332 -5.769,0.332 z m -6.992,5.8985 h 12.805 c 2.898,0 5.098,-0.2305 6.609,-0.6719 2.043,-0.6055 3.789,-1.6719 5.239,-3.2109 1.453,-1.5352 2.554,-3.4102 3.32,-5.6368 0.762,-2.2265 1.133,-4.9804 1.133,-8.2421 0,-2.8633 -0.356,-5.3438 -1.067,-7.4024 -0.871,-2.539 -2.097,-4.6094 -3.711,-6.1719 -1.23,-1.1836 -2.871,-2.1093 -4.929,-2.7851 -1.543,-0.4766 -3.618,-0.7305 -6.196,-0.7305 h -13.191 v 34.8516 h -0.012"
         style="fill:#000;fill-opacity:1;fill-rule:nonzero;stroke:none"
         id="path28" /><path
         d="m 863.035,56.3281 v 34.8438 h 10.488 l 6.301,-23.7696 6.231,23.7696 h 10.508 V 56.3281 h -6.504 v 27.4258 l -6.895,-27.4258 h -6.758 l -6.855,27.4258 V 56.3281 h -6.516"
         style="fill:#000;fill-opacity:1;fill-rule:nonzero;stroke:none"
         id="path30" /><path
         d="m 921.934,70.1172 -4.778,12.9297 -4.695,-12.9297 z m 12.91,-13.7891 h -7.637 l -3.027,7.918 h -13.875 l -2.864,-7.918 H 900 l 13.523,34.8438 h 7.415 l 13.906,-34.8438"
         style="fill:#000;fill-opacity:1;fill-rule:nonzero;stroke:none"
         id="path32" /><path
         d="M 945.559,85.2734 V 62.1875 h 5.222 c 1.953,0 3.379,0.1289 4.239,0.3516 1.125,0.2851 2.082,0.7617 2.832,1.4375 0.753,0.6914 1.359,1.8125 1.836,3.3789 0.48,1.5429 0.71,3.6797 0.71,6.375 0,2.6875 -0.242,4.7461 -0.71,6.2031 -0.477,1.4336 -1.133,2.5625 -1.993,3.3672 -0.847,0.8047 -1.933,1.3515 -3.242,1.6406 -0.976,0.2188 -2.898,0.332 -5.754,0.332 z m -7.012,5.8985 h 12.808 c 2.891,0 5.09,-0.2305 6.614,-0.6719 2.031,-0.6055 3.769,-1.6719 5.215,-3.2109 1.457,-1.5352 2.558,-3.4102 3.332,-5.6368 0.742,-2.2265 1.129,-4.9804 1.129,-8.2421 0,-2.8633 -0.36,-5.3438 -1.075,-7.4024 -0.855,-2.539 -2.105,-4.6094 -3.711,-6.1719 -1.199,-1.1836 -2.859,-2.1093 -4.929,-2.7851 -1.524,-0.4766 -3.606,-0.7305 -6.192,-0.7305 h -13.183 v 34.8516 h -0.008"
         style="fill:#000;fill-opacity:1;fill-rule:nonzero;stroke:none"
         id="path34" /><path
         d="m 973.586,56.3281 v 34.8438 h 25.75 v -5.8985 h -18.738 v -7.7343 h 17.429 V 71.6797 H 980.598 V 62.1875 H 1000 v -5.8594 h -26.414"
         style="fill:#000;fill-opacity:1;fill-rule:nonzero;stroke:none"
         id="path36" /><path
         d="m 744.934,16.8086 6.629,-2.1016 c -1.028,-3.7187 -2.708,-6.46481 -5.079,-8.2695 -2.363,-1.80859 -5.363,-2.70703 -9.011,-2.70703 -4.493,0 -8.203,1.54297 -11.118,4.62109 -2.886,3.09374 -4.343,7.30474 -4.343,12.66404 0,5.6641 1.465,10.0703 4.367,13.2032 2.93,3.1367 6.766,4.6992 11.504,4.6992 4.148,0 7.508,-1.2305 10.105,-3.6914 1.543,-1.4453 2.703,-3.5352 3.465,-6.2618 l -6.773,-1.621 c -0.395,1.7578 -1.242,3.1523 -2.512,4.1718 -1.27,1.0235 -2.82,1.5196 -4.641,1.5196 -2.515,0 -4.558,-0.8946 -6.121,-2.7032 -1.562,-1.8164 -2.351,-4.7343 -2.351,-8.7968 0,-4.2969 0.769,-7.3633 2.324,-9.1797 1.531,-1.836 3.543,-2.75394 6.004,-2.75394 1.816,0 3.387,0.57424 4.695,1.74614 1.328,1.1445 2.277,2.9804 2.856,5.4609"
         style="fill:#000;fill-opacity:1;fill-rule:nonzero;stroke:none"
         id="path38" /><path
         d="m 763.105,21.3398 c 0,-3.8593 0.887,-6.7773 2.665,-8.7695 1.769,-1.9922 4.027,-2.96874 6.75,-2.96874 2.722,0 4.968,0.97654 6.718,2.94924 1.758,1.9726 2.617,4.9297 2.617,8.8867 0,3.8945 -0.839,6.8047 -2.546,8.7188 -1.704,1.9218 -3.965,2.8789 -6.789,2.8789 -2.825,0 -5.11,-0.9649 -6.829,-2.9063 -1.714,-1.9531 -2.586,-4.8867 -2.586,-8.7891 z m -7.058,-0.2343 c 0,3.4726 0.523,6.375 1.558,8.7304 0.762,1.7383 1.829,3.2813 3.157,4.668 1.34,1.375 2.793,2.3906 4.383,3.0664 2.101,0.8867 4.535,1.3281 7.316,1.3281 4.988,0 8.992,-1.5429 11.98,-4.6601 3,-3.1172 4.512,-7.4219 4.512,-12.9688 0,-5.5078 -1.492,-9.8047 -4.473,-12.90231 -2.964,-3.10156 -6.953,-4.65625 -11.921,-4.65625 -5.047,0 -9.075,1.54297 -12.039,4.61719 -2.981,3.09767 -4.473,7.35547 -4.473,12.77737"
         style="fill:#000;fill-opacity:1;fill-rule:nonzero;stroke:none"
         id="path40" /><path
         d="M 825.801,4.29688 V 38.3398 h 10.254 l 6.164,-23.2109 6.082,23.2109 h 10.262 V 4.29688 h -6.356 V 31.0859 L 845.48,4.29688 h -6.593 L 832.18,31.0859 V 4.29688 h -6.379"
         style="fill:#000;fill-opacity:1;fill-rule:nonzero;stroke:none"
         id="path42" /><path
         d="M 865.371,4.29688 V 38.3398 h 25.156 v -5.7695 h -18.308 v -7.5312 h 17.019 v -5.7422 h -17.019 v -9.2578 h 18.965 V 4.29688 h -25.813"
         style="fill:#000;fill-opacity:1;fill-rule:nonzero;stroke:none"
         id="path44" /><path
         d="M 904.609,4.29688 V 32.5703 h -10.058 v 5.7695 h 26.933 V 32.5703 H 911.453 V 4.29688 h -6.844"
         style="fill:#000;fill-opacity:1;fill-rule:nonzero;stroke:none"
         id="path46" /><path
         d="M 925.703,4.29688 V 38.3398 h 6.856 V 4.29688 h -6.856"
         style="fill:#000;fill-opacity:1;fill-rule:nonzero;stroke:none"
         id="path48" /><path
         d="m 960.793,16.8086 6.629,-2.1016 c -1.016,-3.7187 -2.703,-6.46481 -5.086,-8.2695 -2.375,-1.80859 -5.371,-2.70703 -9.008,-2.70703 -4.512,0 -8.223,1.54297 -11.109,4.62109 -2.903,3.09374 -4.348,7.30474 -4.348,12.66404 0,5.6641 1.465,10.0703 4.387,13.2032 2.91,3.1367 6.734,4.6992 11.472,4.6992 4.161,0 7.52,-1.2305 10.118,-3.6914 1.55,-1.4453 2.707,-3.5352 3.476,-6.2618 l -6.777,-1.621 c -0.402,1.7578 -1.231,3.1523 -2.5,4.1718 -1.27,1.0235 -2.82,1.5196 -4.649,1.5196 -2.519,0 -4.558,-0.8946 -6.125,-2.7032 -1.558,-1.8164 -2.339,-4.7343 -2.339,-8.7968 0,-4.2969 0.769,-7.3633 2.312,-9.1797 1.543,-1.836 3.547,-2.75394 6.008,-2.75394 1.824,0 3.387,0.57424 4.695,1.74614 1.328,1.1445 2.254,2.9804 2.844,5.4609"
         style="fill:#000;fill-opacity:1;fill-rule:nonzero;stroke:none"
         id="path50" /><path
         d="m 792.566,16.0078 h 6.672 c 0.379,-2.2383 1.192,-3.8984 2.434,-4.9414 1.226,-1.0547 2.879,-1.59374 4.969,-1.59374 2.207,0 3.855,0.48047 4.98,1.40624 1.133,0.9375 1.692,2.0313 1.692,3.293 0,0.8008 -0.239,1.4844 -0.708,2.0508 -0.476,0.5546 -1.289,1.0429 -2.46,1.4726 -0.809,0.2735 -2.633,0.7735 -5.497,1.4961 -3.664,0.8984 -6.242,2.0195 -7.714,3.3594 -2.079,1.8633 -3.133,4.1484 -3.133,6.8437 0,1.7266 0.496,3.3477 1.472,4.8633 0.989,1.5156 2.395,2.6563 4.239,3.4453 1.843,0.793 4.074,1.1953 6.679,1.1953 4.258,0 7.461,-0.9492 9.61,-2.8125 2.16,-1.8671 3.308,-4.6679 3.429,-7.7929 h -6.886 c -0.293,1.7383 -0.926,2.9961 -1.883,3.7695 -0.957,0.7695 -2.426,1.1406 -4.34,1.1406 -1.988,0 -3.555,-0.3984 -4.676,-1.2187 -0.722,-0.5313 -1.086,-1.2227 -1.086,-2.1133 0,-0.8086 0.332,-1.4922 1.008,-2.0664 0.867,-0.7344 2.969,-1.4844 6.301,-2.2774 3.316,-0.789 5.789,-1.6015 7.383,-2.4492 1.597,-0.8398 2.847,-1.9922 3.75,-3.4492 0.906,-1.4726 1.367,-3.2812 1.367,-5.4375 0,-1.9531 -0.559,-3.7695 -1.621,-5.46874 -1.086,-1.71094 -2.609,-2.96875 -4.594,-3.80078 -1.973,-0.82813 -4.441,-1.23829 -7.383,-1.23829 -4.273,0 -7.586,0.98438 -9.882,2.97657 -2.313,1.98437 -3.68,5.54684 -4.122,9.34764"
         style="fill:#000;fill-opacity:1;fill-rule:nonzero;stroke:none"
         id="path52" /><path
         d="m 971.57,16.0078 h 6.672 c 0.403,-2.2383 1.211,-3.8984 2.442,-4.9414 1.218,-1.0547 2.879,-1.59374 4.961,-1.59374 2.214,0 3.867,0.48047 4.98,1.40624 1.121,0.9375 1.672,2.0313 1.672,3.293 0,0.8008 -0.227,1.4844 -0.688,2.0508 -0.476,0.5546 -1.296,1.0429 -2.461,1.4726 -0.808,0.2735 -2.632,0.7735 -5.496,1.4961 -3.664,0.8984 -6.242,2.0195 -7.722,3.3594 -2.09,1.8633 -3.125,4.1484 -3.125,6.8437 0,1.7266 0.496,3.3477 1.472,4.8633 0.977,1.5156 2.383,2.6563 4.239,3.4453 1.843,0.793 4.062,1.1953 6.672,1.1953 4.253,0 7.457,-0.9492 9.609,-2.8125 2.144,-1.8671 3.328,-4.6679 3.426,-7.7929 h -6.895 c -0.281,1.7383 -0.918,2.9961 -1.887,3.7695 -0.957,0.7695 -2.39,1.1406 -4.336,1.1406 -1.98,0 -3.55,-0.3984 -4.675,-1.2187 -0.711,-0.5313 -1.075,-1.2227 -1.075,-2.1133 0,-0.8086 0.34,-1.4922 1.028,-2.0664 0.855,-0.7344 2.945,-1.4844 6.277,-2.2774 3.328,-0.789 5.789,-1.6015 7.403,-2.4492 1.589,-0.8398 2.839,-1.9922 3.742,-3.4492 0.906,-1.4726 1.355,-3.2812 1.355,-5.4375 0,-1.9531 -0.539,-3.7695 -1.621,-5.46874 -1.074,-1.71094 -2.605,-2.96875 -4.578,-3.80078 -1.977,-0.82813 -4.438,-1.23829 -7.387,-1.23829 -4.273,0 -7.578,0.98438 -9.883,2.97657 -2.3,1.98437 -3.679,5.54684 -4.121,9.34764"
         style="fill:#000;fill-opacity:1;fill-rule:nonzero;stroke:none"
         id="path54" /><path
         d="m 796.602,143.941 h -9.141 v 15.567 h 9.641 c 4.988,0 7.996,-0.074 9.003,-0.215 1.993,-0.328 3.543,-1.133 4.649,-2.406 1.101,-1.262 1.648,-2.938 1.648,-4.992 0,-1.84 -0.429,-3.379 -1.257,-4.606 -0.832,-1.223 -1.985,-2.078 -3.457,-2.59 -1.489,-0.496 -5.176,-0.758 -11.086,-0.758 z m 27.839,-25.582 c 0,0.739 -0.015,1.45 -0.015,2.18 -0.102,1.59 -0.149,3.086 -0.227,4.258 -0.371,5.476 -1.914,11.144 -6.902,13.5 1.465,0.844 2.723,1.836 3.766,3.008 2.699,2.996 4.042,6.785 4.042,11.394 0,3.629 -0.886,6.844 -2.656,9.66 -1.785,2.817 -4.156,4.77 -7.105,5.868 -2.961,1.101 -7.707,1.656 -14.231,1.656 h -25.968 v -61.309 h 12.335 v 25.598 h 0.958 1.535 7.586 2.722 0.981 l -0.039,-0.02 c 6.707,0 9.16,-2.804 10.093,-9.191 0.207,-1.414 0.325,-2.914 0.454,-4.422 0,-0.73 0.015,-1.453 0.015,-2.18 0.285,-3.558 0.551,-7.164 1.653,-9.785 h 13.32 c -1.621,2.285 -2.09,6.246 -2.317,9.785"
         style="fill:#000;fill-opacity:1;fill-rule:nonzero;stroke:none"
         id="path56" /><path
         d="m 723.047,108.594 v 61.281 h 41.863 v -10.367 h -29.539 v -14.512 h 25.488 v -10.351 h -25.488 v -26.051 h -12.324"
         style="fill:#000;fill-opacity:1;fill-rule:nonzero;stroke:none"
         id="path58" /><path
         d="m 836.688,108.594 v 61.281 h 45.265 v -10.367 h -32.949 v -13.586 h 30.652 v -10.317 h -30.652 v -16.679 h 34.109 v -10.332 h -46.425"
         style="fill:#000;fill-opacity:1;fill-rule:nonzero;stroke:none"
         id="path60" /><path
         d="m 890.461,129.707 h 11.98 c 0.735,-4.039 2.188,-7.012 4.395,-8.906 2.219,-1.883 5.195,-2.84 8.945,-2.84 3.977,0 6.973,0.848 8.977,2.527 2.019,1.692 3.035,3.657 3.035,5.918 0,1.449 -0.43,2.68 -1.277,3.696 -0.864,1.011 -2.336,1.894 -4.446,2.652 -1.445,0.504 -4.726,1.387 -9.875,2.672 -6.609,1.629 -11.238,3.668 -13.902,6.062 -3.75,3.371 -5.625,7.481 -5.625,12.332 0,3.114 0.887,6.039 2.645,8.754 1.757,2.719 4.316,4.781 7.617,6.211 3.32,1.422 7.336,2.137 12.031,2.137 7.644,0 13.43,-1.688 17.297,-5.063 3.887,-3.367 5.972,-8.418 6.18,-14.05 h -12.403 c -0.515,3.144 -1.648,5.41 -3.39,6.796 -1.739,1.375 -4.325,2.063 -7.809,2.063 -3.574,0 -6.391,-0.734 -8.418,-2.215 -1.289,-0.949 -1.938,-2.219 -1.938,-3.801 0,-1.457 0.61,-2.687 1.829,-3.73 1.55,-1.313 5.324,-2.668 11.328,-4.09 5.996,-1.426 10.429,-2.902 13.301,-4.418 2.89,-1.516 5.125,-3.594 6.765,-6.219 1.621,-2.629 2.434,-5.89 2.434,-9.765 0,-3.516 -0.977,-6.797 -2.91,-9.864 -1.954,-3.078 -4.7,-5.339 -8.262,-6.839 -3.555,-1.489 -7.981,-2.235 -13.274,-2.235 -7.73,0 -13.648,1.789 -17.793,5.375 -4.16,3.594 -6.648,9.981 -7.437,16.84"
         style="fill:#000;fill-opacity:1;fill-rule:nonzero;stroke:none"
         id="path62" /><path
         d="m 950.527,108.594 v 61.281 h 12.332 v -24.121 h 24.172 v 24.121 h 12.324 v -61.281 h -12.324 v 26.793 h -24.172 v -26.793 h -12.332"
         style="fill:#000;fill-opacity:1;fill-rule:nonzero;stroke:none"
         id="path64" /></g></g></svg>
